<svg xmlns="http://www.w3.org/2000/svg" width="340" height="34" viewBox="0 0 340 34" shape-rendering="crispEdges">
  <rect width="340" height="34" fill="none"/>
  <g id="bolt">
    <rect width="34" height="34" fill="#172554"/>
    <rect x="3" y="3" width="28" height="28" fill="#1d4ed8"/>
    <rect x="18" y="4" width="5" height="9" fill="#cffafe"/>
    <rect x="13" y="12" width="10" height="5" fill="#67e8f9"/>
    <rect x="10" y="16" width="7" height="5" fill="#a5f3fc"/>
    <rect x="7" y="21" width="7" height="8" fill="#f8fafc"/>
  </g>
  <g id="nova" transform="translate(34)">
    <rect width="34" height="34" fill="#431407"/>
    <rect x="3" y="3" width="28" height="28" fill="#b45309"/>
    <rect x="14" y="5" width="6" height="24" fill="#fde68a"/>
    <rect x="5" y="14" width="24" height="6" fill="#fde68a"/>
    <rect x="8" y="8" width="5" height="5" fill="#f97316"/>
    <rect x="21" y="21" width="5" height="5" fill="#f97316"/>
  </g>
  <g id="shot" transform="translate(68)">
    <rect width="34" height="34" fill="#422006"/>
    <rect x="3" y="3" width="28" height="28" fill="#92400e"/>
    <rect x="6" y="16" width="18" height="4" fill="#fde68a"/>
    <rect x="21" y="12" width="7" height="12" fill="#f8fafc"/>
    <rect x="9" y="11" width="3" height="14" fill="#7c2d12"/>
  </g>
  <g id="trap" transform="translate(102)">
    <rect width="34" height="34" fill="#2e1065"/>
    <rect x="3" y="3" width="28" height="28" fill="#6d28d9"/>
    <rect x="8" y="8" width="18" height="4" fill="#f5d0fe"/>
    <rect x="8" y="22" width="18" height="4" fill="#f5d0fe"/>
    <rect x="8" y="8" width="4" height="18" fill="#f5d0fe"/>
    <rect x="22" y="8" width="4" height="18" fill="#f5d0fe"/>
    <rect x="15" y="15" width="4" height="4" fill="#ffffff"/>
  </g>
  <g id="strike" transform="translate(136)">
    <rect width="34" height="34" fill="#450a0a"/>
    <rect x="3" y="3" width="28" height="28" fill="#b91c1c"/>
    <rect x="22" y="5" width="5" height="7" fill="#f8fafc"/>
    <rect x="18" y="11" width="5" height="6" fill="#fecaca"/>
    <rect x="14" y="16" width="5" height="6" fill="#fca5a5"/>
    <rect x="9" y="21" width="6" height="6" fill="#f8fafc"/>
  </g>
  <g id="cleave" transform="translate(170)">
    <rect width="34" height="34" fill="#431407"/>
    <rect x="3" y="3" width="28" height="28" fill="#c2410c"/>
    <rect x="7" y="10" width="5" height="5" fill="#fed7aa"/>
    <rect x="12" y="8" width="7" height="5" fill="#f8fafc"/>
    <rect x="19" y="10" width="6" height="5" fill="#fed7aa"/>
    <rect x="24" y="15" width="4" height="6" fill="#f8fafc"/>
    <rect x="21" y="21" width="5" height="5" fill="#fed7aa"/>
  </g>
  <g id="shout" transform="translate(204)">
    <rect width="34" height="34" fill="#500724"/>
    <rect x="3" y="3" width="28" height="28" fill="#be123c"/>
    <rect x="7" y="13" width="8" height="8" fill="#fecdd3"/>
    <rect x="15" y="10" width="5" height="14" fill="#f8fafc"/>
    <rect x="22" y="7" width="4" height="20" fill="#fecdd3"/>
    <rect x="27" y="11" width="3" height="12" fill="#f8fafc"/>
  </g>
  <g id="shield" transform="translate(238)">
    <rect width="34" height="34" fill="#422006"/>
    <rect x="3" y="3" width="28" height="28" fill="#ca8a04"/>
    <rect x="9" y="6" width="16" height="6" fill="#fef3c7"/>
    <rect x="7" y="12" width="20" height="10" fill="#fef08a"/>
    <rect x="10" y="22" width="14" height="5" fill="#f8fafc"/>
    <rect x="15" y="10" width="4" height="15" fill="#a16207"/>
  </g>
  <g id="heal" transform="translate(272)">
    <rect width="34" height="34" fill="#052e16"/>
    <rect x="3" y="3" width="28" height="28" fill="#16a34a"/>
    <rect x="14" y="6" width="6" height="22" fill="#dcfce7"/>
    <rect x="6" y="14" width="22" height="6" fill="#dcfce7"/>
    <rect x="8" y="8" width="4" height="4" fill="#bbf7d0"/>
    <rect x="22" y="22" width="4" height="4" fill="#bbf7d0"/>
  </g>
  <g id="channel" transform="translate(306)">
    <rect width="34" height="34" fill="#1e1b4b"/>
    <rect x="3" y="3" width="28" height="28" fill="#581c87"/>
    <rect x="5" y="17" width="6" height="6" fill="#f5d0fe"/>
    <rect x="13" y="14" width="6" height="6" fill="#c084fc"/>
    <rect x="21" y="11" width="6" height="6" fill="#f5d0fe"/>
    <rect x="20" y="22" width="5" height="5" fill="#a78bfa"/>
  </g>
</svg>
