<svg xmlns="http://www.w3.org/2000/svg" width="512" height="512" viewBox="0 0 512 512" shape-rendering="crispEdges">
  <rect width="512" height="512" fill="#1a2628"/>
  <defs>
    <g id="shadow"><rect x="14" y="54" width="36" height="4" fill="#000" opacity=".22"/><rect x="18" y="58" width="28" height="3" fill="#000" opacity=".12"/></g>
    <g id="body-mask">
      <rect x="17" y="25" width="30" height="4" fill="#111820"/>
      <rect x="14" y="29" width="36" height="28" fill="#111820"/>
      <rect x="18" y="31" width="28" height="24" fill="#fff"/>
      <rect x="25" y="33" width="14" height="20" fill="#d9d9d9"/>
      <rect x="29" y="31" width="6" height="24" fill="#bdbdbd"/>
    </g>
    <g id="skin-mask">
      <rect x="20" y="8" width="24" height="4" fill="#111820"/>
      <rect x="17" y="12" width="30" height="19" fill="#111820"/>
      <rect x="21" y="10" width="22" height="20" fill="#fff"/>
      <rect x="18" y="18" width="4" height="8" fill="#fff"/>
      <rect x="42" y="18" width="4" height="8" fill="#fff"/>
      <rect x="24" y="29" width="16" height="4" fill="#fff"/>
    </g>
    <g id="hair-mask">
      <rect x="20" y="7" width="24" height="7" fill="#fff"/>
      <rect x="18" y="12" width="7" height="10" fill="#fff"/>
      <rect x="39" y="12" width="6" height="9" fill="#fff"/>
    </g>
    <g id="face">
      <rect x="25" y="20" width="3" height="4" fill="#101820"/>
      <rect x="36" y="20" width="3" height="4" fill="#101820"/>
      <rect x="29" y="27" width="7" height="2" fill="#101820"/>
    </g>
    <g id="trim-mask">
      <rect x="28" y="32" width="8" height="23" fill="#fff"/>
      <rect x="18" y="41" width="28" height="5" fill="#fff"/>
      <rect x="15" y="29" width="8" height="8" fill="#fff"/>
      <rect x="41" y="29" width="8" height="8" fill="#fff"/>
    </g>
    <g id="legs-a"><rect x="18" y="53" width="8" height="18" fill="#111820"/><rect x="38" y="53" width="8" height="14" fill="#111820"/><rect x="20" y="54" width="5" height="14" fill="#fff"/><rect x="39" y="54" width="5" height="10" fill="#fff"/></g>
    <g id="legs-b"><rect x="18" y="53" width="8" height="14" fill="#111820"/><rect x="38" y="53" width="8" height="18" fill="#111820"/><rect x="20" y="54" width="5" height="10" fill="#fff"/><rect x="39" y="54" width="5" height="14" fill="#fff"/></g>
    <g id="weapon-staff"><rect x="48" y="27" width="4" height="31" fill="#fff"/><rect x="45" y="21" width="10" height="10" fill="#fff"/></g>
    <g id="weapon-bow"><rect x="48" y="21" width="4" height="34" fill="#fff"/><rect x="52" y="32" width="10" height="4" fill="#fff"/></g>
    <g id="weapon-shield"><rect x="10" y="33" width="13" height="18" fill="#fff"/><rect x="49" y="32" width="13" height="13" fill="#fff"/></g>
    <g id="weapon-sword"><rect x="50" y="22" width="5" height="33" fill="#fff"/><rect x="47" y="20" width="11" height="6" fill="#fff"/></g>
    <g id="weapon-daggers"><rect x="10" y="36" width="15" height="4" fill="#fff"/><rect x="39" y="36" width="15" height="4" fill="#fff"/></g>
  </defs>

  <g id="sheet-note" opacity=".32">
    <rect x="0" y="0" width="512" height="512" fill="none" stroke="#8be9fd" stroke-width="2"/>
  </g>

  <g transform="translate(16 16)">
    <use href="#shadow"/><use href="#body-mask" fill="#4263eb"/><use href="#trim-mask" fill="#8be9fd"/><use href="#skin-mask" fill="#f2c7a4"/><use href="#hair-mask" fill="#8b5e34"/><use href="#face"/><use href="#legs-a" fill="#8be9fd"/><use href="#weapon-staff" fill="#d7f9ff"/>
  </g>
  <g transform="translate(96 16)">
    <use href="#shadow"/><use href="#body-mask" fill="#2f9e44"/><use href="#trim-mask" fill="#bef264"/><use href="#skin-mask" fill="#f0d6ad"/><use href="#hair-mask" fill="#d8b46a"/><use href="#face"/><use href="#legs-b" fill="#bef264"/><use href="#weapon-bow" fill="#8d6e45"/>
  </g>
  <g transform="translate(176 16)">
    <use href="#shadow"/><use href="#body-mask" fill="#e6c55c"/><use href="#trim-mask" fill="#f8fafc"/><use href="#skin-mask" fill="#d6a06f"/><use href="#hair-mask" fill="#9a4f2f"/><use href="#face"/><use href="#legs-a" fill="#f8fafc"/><use href="#weapon-shield" fill="#facc15"/>
  </g>
  <g transform="translate(256 16)">
    <use href="#shadow"/><use href="#body-mask" fill="#b42318"/><use href="#trim-mask" fill="#94a3b8"/><use href="#skin-mask" fill="#74a85a"/><use href="#hair-mask" fill="#20251f"/><use href="#face"/><use href="#legs-b" fill="#94a3b8"/><use href="#weapon-sword" fill="#d1d5db"/>
  </g>
  <g transform="translate(336 16)">
    <use href="#shadow"/><use href="#body-mask" fill="#f8fafc"/><use href="#trim-mask" fill="#facc15"/><use href="#skin-mask" fill="#cbd5c0"/><use href="#hair-mask" fill="#d8dee9"/><use href="#face"/><use href="#legs-a" fill="#facc15"/><use href="#weapon-staff" fill="#fde68a"/>
  </g>
  <g transform="translate(416 16)">
    <use href="#shadow"/><use href="#body-mask" fill="#312e81"/><use href="#trim-mask" fill="#c084fc"/><use href="#skin-mask" fill="#f2c7a4"/><use href="#hair-mask" fill="#1f2937"/><use href="#face"/><use href="#legs-b" fill="#c084fc"/><use href="#weapon-daggers" fill="#e5e7eb"/>
  </g>
</svg>
